# xmcd
#
# Track frame offsets:
#	150
#	12247
#	30052
#	41352
#	61397
#	83112
#	103202
#	121942
#	137247
#	153402
#	170752
#	187420
#
# Disc length: 2730 seconds
#
# Revision: 0
# Processed by: cddbd v1.4PL0 Copyright (c) Steve Scherf et al.
# Submitted via: audiograbber 1.81.01
#
DISCID=9c0aa80c
DTITLE=Dik Dik - i grandi successi originali cd1
DYEAR=1900
DGENRE=pop
TTITLE0=Dolce di giorno
TTITLE1=Dove vai
TTITLE2=Guardo te e vedo mio figlio
TTITLE3=Help me
TTITLE4=Storia di periferia
TTITLE5=Il cavallo, l'aratro e l'uomo
TTITLE6=Piccola mia
TTITLE7=Il primo giorno di primavera
TTITLE8=Il vento
TTITLE9=Inno
TTITLE10=Io mi fermo qui
TTITLE11=L'isola di Wight
EXTD=
EXTT0=
EXTT1=
EXTT2=
EXTT3=
EXTT4=
EXTT5=
EXTT6=
EXTT7=
EXTT8=
EXTT9=
EXTT10=
EXTT11=
PLAYORDER=
